<?xml version="1.0" encoding="UTF-8"?>
<svg width="100px" height="100px" viewBox="0 0 100 100" version="1.1" xmlns="http://www.w3.org/2000/svg" xmlns:xlink="http://www.w3.org/1999/xlink">
    <!-- Generator: Sketch 52.5 (67469) - http://www.bohemiancoding.com/sketch -->
    <title>Artboard</title>
    <desc>Created with Sketch.</desc>
    <g id="Artboard" stroke="none" stroke-width="1" fill="none" fill-rule="evenodd">
        <path d="M34.1490832,49.1452418 C38.8971392,53.9022769 45.1859415,56.5221583 51.8563208,56.5221583 L58.1822494,56.5221583 L58.1822494,91.7089311 C58.1822494,92.4016899 57.908614,93.0569185 57.4115326,93.5537628 C56.9134198,94.0526731 56.2595824,94.3277796 55.5686186,94.3277796 L44.7723944,94.3277796 C44.0814306,94.3277796 43.4275932,94.0533617 42.9294804,93.5551401 C42.4317115,93.0558855 42.156701,92.3999683 42.156701,91.7089311 L42.156701,80.3737867 C42.156701,78.1856745 41.3058873,76.1280571 39.7592971,74.5807122 C38.2058316,73.0247596 36.1487532,72.1681076 33.9655137,72.1681076 L29.881608,72.1681076 C27.6973372,72.1681076 25.6402588,73.024071 24.0878246,74.5800236 C22.5333278,76.1242696 21.6777015,78.181887 21.6777015,80.3737867 L21.6777015,91.7089311 C21.6777015,92.399624 21.4037223,93.0555412 20.9059533,93.556173 C20.407153,94.0533617 19.7529718,94.3277796 19.0640706,94.3277796 L8.26715894,94.3277796 C7.59269572,94.3277796 6.92407648,94.0440652 6.43387029,93.5516969 C5.93678884,93.064149 5.66280964,92.4092648 5.66280964,91.7089311 L5.66280964,36.6401201 C5.66280964,34.3277107 6.56828167,32.1475177 8.21043802,30.5010106 C9.86221975,28.8483058 12.0392715,27.9375966 14.3404217,27.9375966 L26.7939278,27.9375966 L26.7939278,31.4199833 C26.7939278,38.1006979 29.4058398,44.3954372 34.1490832,49.1452418 Z M92.655845,7.35625773 C87.9198207,2.61230645 81.6268933,0 74.937607,0 L26.7939278,0 L26.7939278,22.2664091 L14.3404217,22.2664091 C10.5318703,22.2664091 6.93645195,23.7658944 4.21659826,26.4890698 C1.49674456,29.2022601 0,32.8072223 0,36.6401201 L0,91.7089311 C0,93.915292 0.863189159,95.9952898 2.43040516,97.5660479 C3.99658987,99.1354288 6.0694814,100 8.26715894,100 L19.0640706,100 C21.2682796,100 23.3439212,99.1354288 24.9104497,97.5660479 C26.4773219,95.9970114 27.3398236,93.9166692 27.3398236,91.7089311 L27.3398236,80.3737867 C27.3398236,79.7065072 27.6031461,79.0702159 28.0816644,78.5802578 C28.5656828,78.096153 29.2050822,77.8296543 29.881608,77.8296543 L33.9655137,77.8296543 C34.6361955,77.8296543 35.2718135,78.0971859 35.7551444,78.581635 C36.2384753,79.0660841 36.5055793,79.7027197 36.5055793,80.3737867 L36.5055793,91.7089311 C36.5055793,93.9228669 37.3639558,96.003209 38.9242965,97.5660479 C40.4904812,99.1354288 42.5671541,100 44.7723944,100 L55.5686186,100 C57.7728276,100 59.8484692,99.1354288 61.4149977,97.5660479 C62.9749947,96.0045863 63.8347462,93.9245885 63.8347462,91.7089311 L63.8347462,56.5221583 L75.1198014,56.5221583 L75.1198014,41.4983834 C75.1198014,36.3051031 73.0860989,31.4017347 69.391333,27.693134 C65.6893482,23.9941742 60.7948491,21.9572156 55.6112452,21.9572156 L54.9065308,21.9572156 L54.9065308,27.6290917 L55.6112452,27.6290917 C59.2932918,27.6290917 62.7646117,29.07693 65.3882117,31.7050748 C68.0124992,34.3328754 69.4580231,37.810786 69.4580231,41.4983834 L69.4580231,50.8499379 L51.8563208,50.8499379 C46.7033118,50.8499379 41.8370013,48.8239973 38.1535796,45.1446633 C34.4804708,41.4553443 32.4570812,36.5812425 32.4570812,31.4199833 L32.4570812,5.67187613 L74.937607,5.67187613 C80.1222422,5.67187613 84.9930216,7.69471789 88.6516923,11.3675099 C92.3179259,15.0285952 94.3371904,19.9068288 94.3371904,25.102175 L94.3371904,86.0308574 C94.3371904,88.2368739 93.468501,90.3154945 91.8937222,91.8838424 C90.3296001,93.4594209 88.2549897,94.3277796 86.0524995,94.3277796 C83.8421027,94.3277796 81.7643985,93.4590766 80.2002764,91.8828095 C78.6254976,90.3058537 77.7578395,88.2272331 77.7578395,86.0308574 C77.7578395,83.8265624 78.6254976,81.7444987 80.2002764,80.1682316 C81.7753989,78.5919644 83.8531031,77.7232615 86.0524995,77.7232615 L86.7568701,77.7232615 L86.7568701,72.0617148 L86.0524995,72.0617148 C82.3443269,72.0617148 78.8434434,73.5160949 76.1947487,76.1569794 C73.5577419,78.7985525 72.1056865,82.3050411 72.1056865,86.0308574 C72.1056865,89.7501317 73.5577419,93.2528328 76.1937174,95.8940616 C78.8506624,98.5418324 82.3508584,100 86.0524995,100 C89.7575783,100 93.2553679,98.5418324 95.8999374,95.893373 C98.5441632,93.2449136 100,89.7425568 100,86.0308574 L100,25.102175 C100,18.4018345 97.3922131,12.0995204 92.655845,7.35625773 Z" id="Fill-5" fill="#820BC6"></path>
    </g>
</svg>